#!OML:ASF F:\twosubjects\two\wednesday\Session 1\rory1.ASF
:FULLY-SPECIFIED
:DEGREES
201
root 8.89847 18.4993 9.57846 -175.826 -1.78419 180.415
lowerback 2.57825 1.19103 -3.63501
upperback 1.16131 1.44137 -0.945061
thorax -0.320022 0.687842 1.02616
lowerneck -11.353 -7.33379 -8.28155
upperneck 9.86747 -11.3452 16.1375
head 6.29996 -5.04409 5.39626
rclavicle 4.37326e-015 1.59028e-015
rhumerus -38.2186 -4.12945 -52.0057
rradius 138.159
rwrist -29.5496
rhand -4.91333 37.2372
rfingers 7.12502
rthumb 20.8767 8.34054
lclavicle 4.37326e-015 1.59028e-015
lhumerus -27.1731 14.8801 61.2091
lradius 142.102
lwrist 27.3484
lhand -13.869 14.4295
lfingers 7.12502
lthumb 12.2554 44.0504
rfemur -7.75912 8.3877 16.7084
rtibia 25.9621
rfoot -15.1492 -14.7952
rtoes 3.73587
lfemur -10.7575 -4.48564 -14.2616
ltibia 27.726
lfoot -17.2336 2.18585
ltoes -10.8229
202
root 8.89476 18.4778 9.58821 -175.927 -1.81127 180.294
lowerback 2.6668 1.16376 -3.73748
upperback 1.31402 1.39128 -1.07086
thorax -0.210108 0.65461 0.956035
lowerneck -11.2509 -7.30708 -8.25821
upperneck 9.74823 -11.3923 16.4982
head 6.27476 -5.06629 5.50641
rclavicle 2.08724e-014 -1.74931e-014
rhumerus -39.3182 -5.23436 -56.3507
rradius 138.603
rwrist -29.0901
rhand -3.37492 36.6228
rfingers 7.12502
rthumb 22.3541 7.89601
lclavicle 2.08724e-014 -1.74931e-014
lhumerus -28.6644 14.3661 64.5304
lradius 142.631
lwrist 28.7724
lhand -13.3886 13.759
lfingers 7.12502
lthumb 12.7186 43.3517
rfemur -7.93589 8.20599 16.5503
rtibia 26.4372
rfoot -15.2805 -14.7213
rtoes 3.30159
lfemur -10.8899 -4.38181 -14.3865
ltibia 28.0706
lfoot -17.2663 1.92891
ltoes -10.3476
203
root 8.89485 18.4612 9.5877 -176.015 -1.87589 180.271
lowerback 2.75083 1.09078 -3.78956
upperback 1.35207 1.28321 -1.1701
thorax -0.212281 0.597652 0.885549
lowerneck -10.5657 -7.2458 -8.03664
upperneck 9.08685 -11.3224 16.6585
head 5.93937 -5.08065 5.54888
rclavicle -2.70347e-014 3.57812e-014
rhumerus -40.1018 -6.09674 -60.9631
rradius 138.737
rwrist -28.4653
rhand -3.00509 36.3564
rfingers 7.12502
rthumb 22.7091 7.67274
lclavicle -2.70347e-014 3.57812e-014
lhumerus -30.3257 13.3578 67.6531
lradius 143.002
lwrist 30.7317
lhand -12.2613 13.9953
lfingers 7.12502
lthumb 13.8052 43.5172
rfemur -8.14786 8.15589 16.5383
rtibia 27.0619
rfoot -15.642 -14.7233
rtoes 3.63881
lfemur -11.0776 -4.29858 -14.3891
ltibia 28.5977
lfoot -17.4487 1.70639
ltoes -10.6579
204
root 8.88053 18.4396 9.59311 -176.011 -1.84027 180.079
lowerback 2.83901 1.04636 -3.83096
upperback 1.37753 1.21059 -1.3233
thorax -0.230078 0.558164 0.752605
lowerneck -10.4265 -7.14192 -7.91757
upperneck 8.8572 -11.2173 16.8436
head 5.83666 -5.03921 5.6048
rclavicle 1.21259e-014 -2.62396e-014
rhumerus -40.4568 -6.82804 -65.3369
rradius 138.46
rwrist -27.7012
rhand -2.52741 36.5443
rfingers 7.12502
rthumb 23.1675 7.91748
lclavicle 1.21259e-014 -2.62396e-014
lhumerus -31.765 11.811 70.8643
lradius 143.141
lwrist 33.2525
lhand -10.3523 15.513
lfingers 7.12502
lthumb 15.6444 44.9005
rfemur -8.53014 8.09297 16.2418
rtibia 27.6971
rfoot -15.8941 -14.6445
rtoes 3.46371
lfemur -11.3927 -4.17886 -14.6395
ltibia 29.1395
lfoot -17.6209 1.57669
ltoes -11.2568
205
root 8.83437 18.4171 9.62452 -175.545 -2.03503 179.753
lowerback 2.77231 0.812463 -3.48675
upperback 1.32584 0.904865 -1.54727
thorax -0.224626 0.406456 0.341052
lowerneck -11.0704 -7.10362 -8.16865
upperneck 9.38161 -11.2282 17.0847
head 6.14312 -4.99427 5.70607
rclavicle -8.94531e-015 -5.56597e-015
rhumerus -40.174 -7.17472 -69.411
rradius 137.977
rwrist -27.1138
rhand -1.346 36.4303
rfingers 7.12502
rthumb 24.3005 7.95052
lclavicle -8.94531e-015 -5.56597e-015
lhumerus -32.9094 9.87622 74.0157
lradius 142.804
lwrist 35.788
lhand -8.94717 16.4431
lfingers 7.12502
lthumb 16.9973 45.7195
rfemur -9.58166 7.45083 15.563
rtibia 28.3859
rfoot -16.0095 -14.2673
rtoes 2.83556
lfemur -12.4366 -4.43134 -15.1209
ltibia 29.7247
lfoot -17.6288 1.80535
ltoes -12.1049
206
root 8.85832 18.4006 9.62695 -175.941 -1.9513 179.792
lowerback 3.237 0.736824 -3.64814
upperback 1.49459 0.76968 -1.54294
thorax -0.30945 0.332574 0.435514
lowerneck -11.4416 -7.11196 -8.378
upperneck 9.83636 -11.2874 17.2026
head 6.37723 -4.99171 5.76406
rclavicle 1.08338e-014 1.66979e-014
rhumerus -39.9129 -6.73947 -73.3895
rradius 137.534
rwrist -26.1986
rhand -0.944961 36.4078
rfingers 7.12502
rthumb 24.685 7.98012
lclavicle 1.08338e-014 1.66979e-014
lhumerus -34.0599 7.08314 76.6383
lradius 141.982
lwrist 37.709
lhand -8.64344 15.6023
lfingers 7.12502
lthumb 17.2896 44.8532
rfemur -9.50308 7.80299 15.7597
rtibia 29.1156
rfoot -16.3675 -14.5904
rtoes 2.4628
lfemur -12.2605 -3.945 -15.0036
ltibia 30.2709
lfoot -17.735 1.31251
ltoes -12.3414
207
root 8.86481 18.3769 9.62654 -175.942 -1.89559 179.771
lowerback 3.05572 0.681478 -3.67935
upperback 1.51896 0.703941 -1.57557
thorax -0.180738 0.297129 0.423851
lowerneck -11.3226 -7.014 -8.40722
upperneck 10.0898 -11.1726 17.092
head 6.41291 -4.93946 5.75196
rclavicle -1.17283e-014 3.18055e-015
rhumerus -39.8916 -5.50321 -76.5856
rradius 137.154
rwrist -25.3244
rhand -1.23771 36.9819
rfingers 7.12502
rthumb 24.4043 8.5161
lclavicle -1.17283e-014 3.18055e-015
lhumerus -35.1189 3.56656 78.8041
lradius 140.939
lwrist 39.3265
lhand -8.26024 14.3688
lfingers 7.12502
lthumb 17.6584 43.5869
rfemur -9.92134 7.77173 15.7379
rtibia 29.8702
rfoot -16.5969 -14.5887
rtoes 2.01711
lfemur -12.5222 -3.65401 -14.9839
ltibia 30.8137
lfoot -17.8772 0.86958
ltoes -11.5972
208
root 8.87236 18.3512 9.63369 -176.047 -1.9427 179.596
lowerback 3.09784 0.621313 -3.94989
upperback 1.47363 0.611636 -1.56892
thorax -0.250373 0.250878 0.584183
lowerneck -10.8864 -6.8681 -8.29639
upperneck 10.2575 -10.9356 16.6315
head 6.31832 -4.85351 5.62467
rclavicle 1.2921e-015 -4.53229e-014
rhumerus -39.7626 -3.45288 -78.8529
rradius 136.773
rwrist -25.0195
rhand -0.566641 37.5886
rfingers 7.12502
rthumb 25.0475 9.21095
lclavicle 1.2921e-015 -4.53229e-014
lhumerus -35.7947 -0.382764 80.3627
lradius 140.058
lwrist 40.1702
lhand -7.62979 15.1144
lfingers 7.12502
lthumb 18.265 44.2768
rfemur -10.1874 7.62995 15.5769
rtibia 30.5671
rfoot -16.8984 -14.514
rtoes 2.27387
lfemur -12.6547 -3.49685 -15.1325
ltibia 31.2372
lfoot -18.058 0.564363
ltoes -11.1505
209
root 8.88583 18.3248 9.65761 -176.535 -2.31464 179.499
lowerback 4.13103 0.504367 -4.10622
upperback 1.29022 0.381168 -1.59627
thorax -1.00854 0.147739 0.644536
lowerneck -10.3995 -6.76846 -8.0085
upperneck 10.4841 -10.7752 15.9932
head 6.22444 -4.80882 5.40177
rclavicle 3.97569e-015 -7.95139e-015
rhumerus -39.9092 -0.550897 -80.721
rradius 136.28
rwrist -23.4934
rhand -1.34102 38.5839
rfingers 7.12502
rthumb 24.3053 10.1048
lclavicle 3.97569e-015 -7.95139e-015
lhumerus -36.1832 -5.30501 81.0612
lradius 138.924
lwrist 39.1566
lhand -8.14073 14.1269
lfingers 7.12502
lthumb 17.7734 43.3347
rfemur -10.0083 7.41585 15.6254
rtibia 31.2731
rfoot -17.169 -14.7044
rtoes 2.28522
lfemur -12.5017 -3.49092 -15.1615
ltibia 31.6682
lfoot -18.2168 0.218307
ltoes -11.461
210
root 8.8939 18.3041 9.68058 -177.029 -2.69534 179.344
lowerback 4.07729 0.446804 -4.64025
upperback 1.84503 0.288676 -1.40163
thorax -0.407562 0.0730624 1.14877
lowerneck -10.2621 -6.75518 -7.87854
upperneck 10.1326 -10.6144 15.5753
head 6.03799 -4.74982 5.26623
rclavicle -6.26172e-015 -7.95139e-015
rhumerus -38.8038 4.09162 -81.2007
rradius 135.125
rwrist -20.435
rhand -5.97247 40.8477
rfingers 7.12502
rthumb 19.8588 11.8423
lclavicle -6.26172e-015 -7.95139e-015
lhumerus -35.4088 -10.6816 81.4334
lradius 137.734
lwrist 36.8953
lhand -9.8305 13.0605
lfingers 7.12502
lthumb 16.1469 42.4079
rfemur -9.80664 7.11858 15.5843
rtibia 31.9491
rfoot -17.2154 -14.954
rtoes 1.46345
lfemur -12.3347 -3.53067 -15.2858
ltibia 32.0931
lfoot -18.3275 -0.137295
ltoes -11.5615
211
root 8.89614 18.295 9.69314 -177.454 -2.82828 179.186
lowerback 4.20776 0.388647 -5.04569
upperback 2.11873 0.184602 -1.28018
thorax -0.194282 0.00345337 1.50439
lowerneck -10.0367 -6.63017 -7.82117
upperneck 10.1249 -10.391 15.2744
head 5.94676 -4.65867 5.19124
rclavicle 2.28602e-015 -9.54166e-015
rhumerus -37.8824 8.48232 -80.6293
rradius 134.79
rwrist -20.9294
rhand -3.48309 40.9694
rfingers 7.12502
rthumb 22.2503 12.2302
lclavicle 2.28602e-015 -9.54166e-015
lhumerus -35.19 -16.1785 81.1075
lradius 136.87
lwrist 34.7525
lhand -11.1302 13.0764
lfingers 7.12502
lthumb 14.895 42.5209
rfemur -9.69365 6.8215 15.4652
rtibia 32.5982
rfoot -17.3654 -14.8868
rtoes 1.34479
lfemur -12.1398 -3.43313 -15.4596
ltibia 32.4886
lfoot -18.3796 -0.405145
ltoes -11.3839
212
root 8.89461 18.2882 9.71006 -177.742 -2.83122 179.26
lowerback 4.28612 0.344794 -5.08581
upperback 2.33915 0.120271 -1.14575
thorax -0.00725783 -0.0409856 1.66757
lowerneck -10.1645 -6.51285 -7.63499
upperneck 10.4473 -10.1747 14.7069
head 5.99933 -4.552 4.99847
rclavicle 4.37326e-015 2.62396e-014
rhumerus -36.8808 13.1712 -79.3287
rradius 134.612
rwrist -21.338
rhand -1.13095 41.4705
rfingers 7.12502
rthumb 24.5067 13.0185
lclavicle 4.37326e-015 2.62396e-014
lhumerus -34.7335 -21.8659 80.0734
lradius 136.19
lwrist 33.2067
lhand -12.0181 13.3799
lfingers 7.12502
lthumb 14.0395 42.8858
rfemur -9.8241 6.65841 15.5414
rtibia 33.2323
rfoot -17.6708 -14.7036
rtoes 1.80472
lfemur -12.0932 -3.29786 -15.3904
ltibia 32.8399
lfoot -18.3958 -0.477336
ltoes -11.5684
213
root 8.89037 18.2743 9.73023 -177.886 -2.76902 179.194
lowerback 4.19421 0.42991 -5.19347
upperback 2.56121 0.232844 -1.09603
thorax 0.264905 -0.000984629 1.77424
lowerneck -10.3169 -6.49039 -7.2463
upperneck 10.6038 -10.0609 13.9764
head 5.99967 -4.49848 4.70788
rclavicle 3.77691e-015 3.10104e-014
rhumerus -35.7993 17.6712 -77.1744
rradius 134.635
rwrist -21.9297
rhand 0.00839633 40.7055
rfingers 7.12502
rthumb 25.5984 12.4059
lclavicle 3.77691e-015 3.10104e-014
lhumerus -33.6855 -27.8843 78.2455
lradius 135.625
lwrist 33.0027
lhand -13.1207 12.7936
lfingers 7.12502
lthumb 12.9768 42.37
rfemur -10.111 6.6378 15.4368
rtibia 33.8316
rfoot -17.8831 -14.6722
rtoes 1.36242
lfemur -12.1867 -3.23401 -15.4884
ltibia 33.2013
lfoot -18.4836 -0.376673
ltoes -11.5851
214
root 8.88429 18.2562 9.74707 -178.097 -2.65017 178.989
lowerback 4.2555 0.535658 -5.46224
upperback 2.71742 0.353635 -1.06639
thorax 0.382254 0.0450809 1.94989
lowerneck -10.1631 -6.45802 -7.15906
upperneck 10.5269 -9.94552 13.6234
head 5.91161 -4.45888 4.59751
rclavicle 1.09332e-015 -1.31198e-014
rhumerus -34.6014 22.2995 -74.3823
rradius 134.726
rwrist -22.7205
rhand 0.67365 39.455
rfingers 7.12502
rthumb 26.2355 11.2486
lclavicle 1.09332e-015 -1.31198e-014
lhumerus -32.3259 -33.7554 75.6841
lradius 135.209
lwrist 34.1286
lhand -13.1776 12.3077
lfingers 7.12502
lthumb 12.922 41.8876
rfemur -10.2556 6.59833 15.1851
rtibia 34.414
rfoot -17.9409 -14.5616
rtoes 0.98055
lfemur -12.1642 -3.19482 -15.7579
ltibia 33.5736
lfoot -18.6669 -0.334996
ltoes -11.2057
